<svg width="241" height="241" viewBox="0 0 241 241" fill="none" xmlns="http://www.w3.org/2000/svg">
<mask id="mask0_9_3" style="mask-type:alpha" maskUnits="userSpaceOnUse" x="0" y="0" width="241" height="241">
<rect width="241" height="241" fill="#D9D9D9"/>
</mask>
<g mask="url(#mask0_9_3)">
<path d="M75.093 254.5C70.2596 237.5 59.593 196.6 55.593 169C47.4263 166.833 32.093 158 36.093 140C36.9263 135.833 41.293 128.3 52.093 131.5C49.7596 117.667 46.493 89.2 52.093 86C57.7596 82.5 74.293 74.1 95.093 68.5C107.593 64.3333 137.693 56.7 158.093 59.5C168.593 59.6667 192.793 62.9 205.593 74.5L207.093 103L212.093 143L219.093 189.5C219.926 194.5 221.093 205.6 219.093 210C217.593 213.167 212.893 219.8 206.093 221L180.593 224.5C173.593 225 160.993 228.2 166.593 237C168.426 241.167 172.193 250.7 172.593 255.5C146.926 258.5 91.4929 262.5 75.093 254.5Z" fill="#FFC48D" stroke="#FFC48D"/>
<path d="M185.093 197.5C180.093 199.833 167.193 202.9 155.593 196.5" stroke="black" stroke-width="5"/>
<path d="M167.593 142C169.093 142 201.593 133 211.593 155C213.426 162 209.093 175.7 177.093 174.5C171.926 169.167 162.793 155.2 167.593 142Z" fill="url(#paint0_linear_9_3)"/>
<path d="M70.093 155.5L75.593 149.5L82.093 153L80.093 143.5L85.593 139.5L78.593 128L75.593 132L63.093 110.5L68.093 106L56.593 97.5L59.093 90H75.593V79L102.593 81L100.593 70L119.593 74.5L123.093 65L143.593 79V66L172.593 79L175.593 67.5L194.093 81L199.093 71L206.093 74.5L202.093 88.5L206.093 95L204.093 103.5L207.093 118.5L227.593 99L221.593 89.5L227.593 70H223.093V55.5H213.093L211.093 39L200.593 44L177.593 16.5L167.093 25L143.593 10L137.593 19.5L113.593 7L110.593 16.5C104.26 14.5 91.593 10.8 91.593 12V23L75.593 24L73.093 36.5L51.093 32.5L49.593 46H32.593L36.593 64L26.593 71.5L34.093 87.5L25.593 93.5L31.093 105L25.593 110.5L27.593 116.5L45.093 131L56.093 131.5L63.093 140.5L70.093 155.5Z" fill="url(#paint1_linear_9_3)"/>
<path d="M174.093 128.5C170.26 123.5 166.393 111.1 181.593 101.5C190.093 97.6667 208.293 94.7 213.093 113.5C214.093 118 213.193 128.1 201.593 132.5C196.093 134.167 182.893 135.7 174.093 128.5Z" fill="white"/>
<path d="M129.593 132.5C134.26 121.167 135.193 99.1 101.593 101.5C95.9264 101.833 84.893 106.4 86.093 122C86.7597 125.5 90.493 133.9 100.093 139.5C106.593 141.5 121.593 142.9 129.593 132.5Z" fill="white"/>
<path d="M174.093 128.5L173.776 128.887L173.732 128.85L173.696 128.804L174.093 128.5ZM181.593 101.5L181.326 101.077L181.356 101.059L181.387 101.044L181.593 101.5ZM213.093 113.5L213.577 113.376L213.579 113.384L213.581 113.392L213.093 113.5ZM201.593 132.5L201.77 132.968L201.754 132.974L201.738 132.979L201.593 132.5ZM129.593 132.5L130.055 132.69L130.03 132.752L129.989 132.805L129.593 132.5ZM101.593 101.5L101.629 101.999L101.622 101.999L101.593 101.5ZM86.093 122L85.6018 122.094L85.5966 122.066L85.5945 122.038L86.093 122ZM100.093 139.5L99.946 139.978L99.8909 139.961L99.8411 139.932L100.093 139.5ZM173.696 128.804C171.72 126.227 169.74 121.755 170.208 116.679C170.678 111.574 173.618 105.946 181.326 101.077L181.86 101.923C174.369 106.654 171.641 112.026 171.203 116.771C170.763 121.545 172.633 125.774 174.49 128.196L173.696 128.804ZM181.387 101.044C185.694 99.1021 192.475 97.3673 198.82 98.5206C202.002 99.0989 205.084 100.406 207.679 102.786C210.276 105.167 212.357 108.597 213.577 113.376L212.609 113.624C211.429 109.003 209.435 105.753 207.003 103.523C204.571 101.292 201.672 100.055 198.641 99.5045C192.561 98.3994 185.992 100.065 181.799 101.956L181.387 101.044ZM213.581 113.392C214.101 115.732 214.123 119.49 212.528 123.234C210.925 126.996 207.698 130.719 201.77 132.968L201.416 132.033C207.088 129.881 210.111 126.354 211.608 122.842C213.113 119.31 213.085 115.768 212.605 113.608L213.581 113.392ZM201.738 132.979C198.935 133.828 194.201 134.636 189.05 134.324C183.9 134.012 178.285 132.576 173.776 128.887L174.41 128.113C178.701 131.624 184.086 133.021 189.111 133.326C194.135 133.63 198.751 132.839 201.448 132.022L201.738 132.979ZM129.131 132.31C131.44 126.702 132.785 118.522 129.498 112.077C126.244 105.699 118.331 100.806 101.629 101.999L101.557 101.001C118.456 99.7943 126.875 104.734 130.388 111.623C133.868 118.445 132.413 126.965 130.055 132.69L129.131 132.31ZM101.622 101.999C98.884 102.16 94.8276 103.35 91.6114 106.388C88.415 109.408 86.002 114.297 86.5915 121.962L85.5945 122.038C84.9841 114.103 87.4877 108.909 90.9247 105.662C94.3418 102.433 98.6353 101.173 101.564 101.001L101.622 101.999ZM86.5842 121.906C87.2259 125.275 90.8793 133.546 100.345 139.068L99.8411 139.932C90.1068 134.254 86.2935 125.725 85.6018 122.094L86.5842 121.906ZM100.24 139.022C103.433 140.004 108.736 140.844 114.218 140.154C119.696 139.465 125.303 137.257 129.197 132.195L129.989 132.805C125.883 138.143 119.991 140.435 114.343 141.146C108.7 141.856 103.253 140.996 99.946 139.978L100.24 139.022Z" fill="white"/>
<path d="M192.593 115.5C192.593 117.709 193.884 119.5 196.093 119.5C198.302 119.5 199.593 118.209 199.593 116C199.593 113.791 198.302 111.5 196.093 111.5C193.884 111.5 192.593 113.291 192.593 115.5Z" fill="#261000"/>
<path d="M109.593 121.5C109.593 123.709 110.889 125.29 113.098 125.29C115.308 125.29 116.598 123.499 116.598 121.29C116.598 119.08 115.321 117.625 113.112 117.625C110.903 117.625 109.593 119.291 109.593 121.5Z" fill="#261000"/>
</g>
<defs>
<linearGradient id="paint0_linear_9_3" x1="212.093" y1="157.5" x2="167.593" y2="157.5" gradientUnits="userSpaceOnUse">
<stop stop-color="#FF9F46"/>
<stop offset="1" stop-color="#FFC48D"/>
</linearGradient>
<linearGradient id="paint1_linear_9_3" x1="126.593" y1="7" x2="126.593" y2="155.5" gradientUnits="userSpaceOnUse">
<stop/>
<stop offset="1" stop-color="#2E2E2E"/>
</linearGradient>
</defs>
</svg>
